<svg width="41" height="40" viewBox="0 0 41 40" fill="none" xmlns="http://www.w3.org/2000/svg">
<path d="M20.6667 14.5834C19.2301 14.5834 17.8523 15.1541 16.8365 16.1699C15.8207 17.1857 15.25 18.5635 15.25 20C15.25 21.4366 15.8207 22.8144 16.8365 23.8302C17.8523 24.846 19.2301 25.4167 20.6667 25.4167C22.1033 25.4167 23.481 24.846 24.4968 23.8302C25.5127 22.8144 26.0833 21.4366 26.0833 20C26.0833 18.5635 25.5127 17.1857 24.4968 16.1699C23.481 15.1541 22.1033 14.5834 20.6667 14.5834Z" fill="#27861B"/>
<path fill-rule="evenodd" clip-rule="evenodd" d="M15.0567 12.4366C15.2941 12.6677 15.4301 12.9835 15.4348 13.3148C15.4395 13.646 15.3125 13.9656 15.0817 14.2033C11.9734 17.4016 11.9734 22.5983 15.0817 25.795C15.3129 26.0328 15.4401 26.3527 15.4354 26.6843C15.4307 27.0159 15.2945 27.3321 15.0567 27.5633C14.8189 27.7945 14.499 27.9217 14.1673 27.917C13.8357 27.9123 13.5195 27.7761 13.2884 27.5383C9.23835 23.3716 9.23835 16.6283 13.2884 12.4616C13.5194 12.2242 13.8353 12.0882 14.1665 12.0835C14.4978 12.0788 14.819 12.2058 15.0567 12.4366ZM26.2767 12.4366C26.5144 12.2058 26.8339 12.0788 27.1652 12.0835C27.4965 12.0882 27.8123 12.2242 28.0434 12.4616C32.0967 16.6283 32.0967 23.3716 28.0434 27.5383C27.9294 27.658 27.7928 27.7539 27.6415 27.8204C27.4902 27.887 27.3272 27.9229 27.162 27.926C26.9967 27.9291 26.8325 27.8995 26.6788 27.8387C26.525 27.778 26.3849 27.6874 26.2665 27.5721C26.148 27.4569 26.0536 27.3192 25.9886 27.1672C25.9237 27.0153 25.8896 26.8519 25.8882 26.6866C25.8868 26.5213 25.9183 26.3574 25.9806 26.2044C26.043 26.0513 26.1352 25.9122 26.2517 25.795C29.36 22.5983 29.36 17.4016 26.2517 14.205C26.0209 13.9673 25.8939 13.6477 25.8986 13.3164C25.9033 12.9852 26.0393 12.6677 26.2767 12.4366Z" fill="#27861B"/>
<path fill-rule="evenodd" clip-rule="evenodd" d="M11.5333 9.11667C11.7674 9.35104 11.8989 9.66875 11.8989 10C11.8989 10.3312 11.7674 10.649 11.5333 10.8833C10.334 12.0794 9.38241 13.5003 8.73314 15.0647C8.08387 16.6291 7.74966 18.3062 7.74966 20C7.74966 21.6938 8.08387 23.3709 8.73314 24.9353C9.38241 26.4997 10.334 27.9206 11.5333 29.1167C11.7541 29.3536 11.8743 29.667 11.8686 29.9909C11.8629 30.3147 11.7317 30.6237 11.5027 30.8527C11.2737 31.0817 10.9647 31.2129 10.6409 31.2186C10.317 31.2243 10.0036 31.1041 9.76667 30.8833C8.3355 29.4552 7.20006 27.7588 6.42535 25.8913C5.65063 24.0238 5.25186 22.0218 5.25186 20C5.25186 17.9782 5.65063 15.9762 6.42535 14.1087C7.20006 12.2412 8.3355 10.5448 9.76667 9.11667C10.001 8.88258 10.3188 8.7511 10.65 8.7511C10.9813 8.7511 11.299 8.88258 11.5333 9.11667ZM29.8 9.11667C30.0344 8.88258 30.3521 8.7511 30.6833 8.7511C31.0146 8.7511 31.3323 8.88258 31.5667 9.11667C32.9978 10.5448 34.1333 12.2412 34.908 14.1087C35.6827 15.9762 36.0815 17.9782 36.0815 20C36.0815 22.0218 35.6827 24.0238 34.908 25.8913C34.1333 27.7588 32.9978 29.4552 31.5667 30.8833C31.3297 31.1041 31.0163 31.2243 30.6925 31.2186C30.3686 31.2129 30.0597 31.0817 29.8306 30.8527C29.6016 30.6237 29.4704 30.3147 29.4647 29.9909C29.459 29.667 29.5792 29.3536 29.8 29.1167C30.9994 27.9206 31.9509 26.4997 32.6002 24.9353C33.2495 23.3709 33.5837 21.6938 33.5837 20C33.5837 18.3062 33.2495 16.6291 32.6002 15.0647C31.9509 13.5003 30.9994 12.0794 29.8 10.8833C29.5659 10.649 29.4344 10.3312 29.4344 10C29.4344 9.66875 29.5659 9.35104 29.8 9.11667Z" fill="#27861B"/>
<path fill-rule="evenodd" clip-rule="evenodd" d="M26.0833 20H15.25C15.25 21.4366 15.8207 22.8143 16.8365 23.8302C17.8523 24.846 19.2301 25.4167 20.6667 25.4167C22.1033 25.4167 23.481 24.846 24.4968 23.8302C25.5127 22.8143 26.0833 21.4366 26.0833 20ZM28.5833 20H31.0833C31.0925 22.8129 30.0022 25.518 28.045 27.5383C27.8138 27.7761 27.4976 27.9124 27.166 27.9171C26.8344 27.9218 26.5145 27.7945 26.2767 27.5633C26.0389 27.3322 25.9026 27.016 25.8979 26.6843C25.8933 26.3527 26.0205 26.0328 26.2517 25.795C27.7546 24.2411 28.5913 22.1618 28.5833 20ZM12.75 20C12.75 22.1 13.5267 24.1967 15.0817 25.795C15.3129 26.0328 15.4401 26.3527 15.4354 26.6843C15.4307 27.016 15.2945 27.3322 15.0567 27.5633C14.8189 27.7945 14.499 27.9218 14.1673 27.9171C13.8357 27.9124 13.5195 27.7761 13.2883 27.5383C11.3311 25.518 10.2408 22.8129 10.25 20H12.75ZM33.5833 20H36.0833C36.0855 22.0223 35.6875 24.0251 34.9123 25.8929C34.1371 27.7608 33.0001 29.4568 31.5667 30.8833C31.3297 31.1041 31.0163 31.2243 30.6925 31.2186C30.3686 31.2129 30.0597 31.0817 29.8306 30.8527C29.6016 30.6237 29.4704 30.3147 29.4647 29.9909C29.459 29.667 29.5792 29.3536 29.8 29.1167C31.0009 27.9218 31.9535 26.5011 32.6028 24.9365C33.2522 23.3718 33.5854 21.6941 33.5833 20ZM7.75001 20C7.75001 23.3 9.01001 26.5983 11.5333 29.1167C11.7541 29.3536 11.8743 29.667 11.8686 29.9909C11.8629 30.3147 11.7317 30.6237 11.5027 30.8527C11.2737 31.0817 10.9647 31.2129 10.6409 31.2186C10.317 31.2243 10.0036 31.1041 9.76667 30.8833C8.33325 29.4568 7.1962 27.7608 6.42103 25.8929C5.64586 24.0251 5.24788 22.0223 5.25001 20H7.75001Z" fill="#004F30"/>
</svg>
