<svg width="40" height="40" viewBox="0 0 40 40" fill="none" xmlns="http://www.w3.org/2000/svg">
<g clip-path="url(#clip0_4_541)">
<path d="M27.5312 18.8281H23.0547V13.0963C23.0547 12.4491 22.53 11.9244 21.8828 11.9244C21.2356 11.9244 20.7109 12.4491 20.7109 13.0963V20C20.7109 20.6472 21.2356 21.1719 21.8828 21.1719H27.5312C28.1784 21.1719 28.7031 20.6472 28.7031 20C28.7031 19.3528 28.1784 18.8281 27.5312 18.8281Z" fill="#265C76"/>
<path d="M34.6936 7.18938C31.2716 3.76742 26.722 1.88281 21.8828 1.88281C17.0436 1.88281 12.494 3.76734 9.07216 7.18922C5.92771 10.3337 4.08154 14.4297 3.80271 18.8281H1.17185C0.940054 18.8281 0.713457 18.8968 0.520719 19.0256C0.327982 19.1543 0.177763 19.3374 0.0890647 19.5515C0.000366455 19.7657 -0.0228264 20.0013 0.0224198 20.2287C0.0676661 20.456 0.179319 20.6648 0.343254 20.8287L6.61927 27.1048C6.83904 27.3245 7.13709 27.448 7.44786 27.448C7.75864 27.448 8.05669 27.3245 8.27646 27.1048L14.5526 20.8287C14.7164 20.6648 14.828 20.456 14.8732 20.2287C14.9184 20.0013 14.8952 19.7657 14.8065 19.5516C14.7178 19.3375 14.5676 19.1545 14.375 19.0257C14.1823 18.8969 13.9557 18.8282 13.724 18.8281H11.1936C11.7793 13.4483 16.3497 9.24742 21.8827 9.24742C24.7549 9.24742 27.4551 10.3659 29.4859 12.3968C31.5168 14.4277 32.6354 17.1279 32.6354 20C32.6354 25.929 27.8118 30.7526 21.8827 30.7526C20.0091 30.7526 18.1654 30.2635 16.5529 29.3405C16.5383 29.3311 16.5229 29.3217 16.5065 29.3122C15.9474 28.9893 15.3132 28.819 14.6676 28.8184C13.3551 28.8184 12.1323 29.5239 11.4765 30.6597C10.9846 31.5115 10.8539 32.5038 11.1085 33.454C11.3551 34.3746 11.9349 35.1487 12.7456 35.6431C12.7702 35.6601 12.7957 35.6761 12.822 35.6913C15.5649 37.2784 18.6979 38.1172 21.8828 38.1172C26.7221 38.1172 31.2718 36.2327 34.6936 32.8108C38.1155 29.3889 40 24.8393 40 20C40 15.1607 38.1154 10.6111 34.6936 7.18938Z" fill="#27861B"/>
<path d="M27.5312 18.8281H23.0547V13.0963C23.0547 12.4491 22.53 11.9244 21.8828 11.9244V21.1719H27.5312C28.1784 21.1719 28.7031 20.6472 28.7031 20C28.7031 19.3528 28.1784 18.8281 27.5312 18.8281Z" fill="#1D4659"/>
<path d="M34.6936 7.18938C31.2716 3.76742 26.722 1.88281 21.8828 1.88281V9.2475C24.755 9.2475 27.4552 10.3659 29.486 12.3969C31.517 14.4277 32.6355 17.128 32.6355 20.0001C32.6355 25.9291 27.8119 30.7527 21.8828 30.7527V38.1172C26.7221 38.1172 31.2718 36.2327 34.6937 32.8108C38.1155 29.3889 40 24.8393 40 20C40 15.1607 38.1155 10.6111 34.6936 7.18938Z" fill="#004F31"/>
</g>
<defs>
<clipPath id="clip0_4_541">
<rect width="40" height="40" fill="white"/>
</clipPath>
</defs>
</svg>
