<svg width="41" height="40" viewBox="0 0 41 40" fill="none" xmlns="http://www.w3.org/2000/svg">
<path d="M35.8888 28.5556C35.5554 29.1112 35.2221 29.5556 34.8888 30.1112C33.7776 31.6667 32.3332 33.1112 30.6665 34.3334C28.5554 35.8889 26.2221 36.8889 23.8888 37.3334C23.5554 37.4445 23.2221 37.4445 22.8888 37.5556C18.7776 38.1112 14.5554 37.2223 11.111 35.1112C10.111 34.4445 9.11097 33.7778 8.22209 33C5.55542 30.5556 3.55542 27.2223 2.77764 23.4445V23.1112C2.55542 22 2.55542 20.7778 2.55542 19.4445V19.3334C2.55542 18.4445 2.66653 17.4445 2.88875 16.4445C3.3332 14.4445 3.99986 12.6667 4.99986 11C5.3332 10.5556 5.66653 10 5.99986 9.5556C7.11098 8.00005 8.55542 6.66672 10.111 5.5556C10.7776 5.11116 11.4443 4.66672 12.111 4.33338C12.8888 4.00005 13.5554 3.66672 14.3332 3.33338H14.4443C17.7776 2.22227 21.3332 2.00005 24.6665 2.88894H24.7776C25.8888 3.22227 26.9999 3.55561 28.111 4.11116H28.2221C29.4443 4.66672 30.5554 5.44449 31.6665 6.33338C34.4443 8.66672 36.3332 11.5556 37.2221 14.7778C37.4443 15.4445 37.5554 16 37.6665 16.6667C38.5554 20.6667 37.8888 24.8889 35.8888 28.5556Z" fill="#F3A250"/>
<path d="M35.8887 28.6668C35.5554 29.2223 35.222 29.6668 34.8887 30.2223C33.7776 31.7779 32.3331 33.2223 30.6665 34.4446C28.9998 35.6668 27.1109 36.5557 25.222 37.1112C24.4443 37.3334 23.6665 37.5557 22.8887 37.6668C18.8887 38.2223 14.7776 37.4446 11.222 35.3334C9.99981 34.6668 8.99981 33.7779 7.99981 32.889C7.11092 32.1112 6.44425 31.2223 5.77759 30.2223C6.8887 31.1112 7.99981 32.0001 9.22203 32.5557L9.8887 32.889C13.222 34.4446 16.8887 34.889 20.3331 34.3334C20.6665 34.2223 20.9998 34.2223 21.3331 34.1112C23.5554 33.5557 25.7776 32.6668 27.7776 31.2223C29.5554 30.0001 30.9998 28.4446 32.1109 26.7779C32.4443 26.3334 32.7776 25.7779 32.9998 25.2223C34.8887 21.7779 35.5554 17.7779 34.8887 13.889C34.8887 13.5557 34.7776 13.2223 34.6665 12.889C34.5554 12.5557 34.6665 12.889 34.6665 12.7779C34.5554 12.4446 34.4443 12.1112 34.4443 11.6668C33.8887 9.889 33.1109 8.11122 31.9998 6.55566C34.1109 8.33344 35.6665 10.5557 36.6665 12.889C37.222 14.1112 37.5554 15.3334 37.7776 16.5557C38.5554 20.6668 37.9998 25.0001 35.8887 28.6668Z" fill="#DD8536"/>
<path d="M37.7776 16.6667C35.2221 12.6667 30.111 12.1112 25.4443 11.5556C22.4443 11.2223 19.3332 10.8889 16.5554 9.77783C15.7776 10.5556 15.111 11.4445 14.4443 12.4445C22.9999 15.8889 30.111 21.1112 35.8888 28.5556C35.7776 28.7778 34.9999 30.0001 34.8888 30.1112C29.2221 22.5556 22.111 17.3334 13.4443 13.7778C12.8888 14.5556 12.4443 15.4445 11.9999 16.3334C18.6665 20.8889 19.9999 34.6667 25.3332 37.0001L23.9999 37.3334C23.6665 37.4445 23.3332 37.4445 22.9999 37.5556C18.5554 33.6667 16.8888 23.2223 12.111 18.6667C11.6665 18.3334 10.9999 18.4445 10.8888 19.0001C8.99986 23.8889 7.88875 31.1112 11.2221 35.2223C10.3332 34.6667 9.44431 34.1112 8.3332 33.0001L8.11098 32.7778C6.66653 28.2223 7.66653 22.3334 9.55542 17.8889C9.77764 17.4445 9.44431 17.0001 8.99986 16.8889C5.88875 16.2223 3.88875 20.4445 2.99986 23.5556V23.2223C2.55542 22.0001 2.55542 20.7778 2.55542 19.4445C4.66653 15.5556 7.77764 14.3334 10.4443 15.5556L11.7776 13.2223C9.77764 12.4445 7.22209 11.6667 4.88875 11.0001C5.3332 10.5556 5.66653 10.0001 5.99986 9.55561C8.22209 10.2223 10.7776 11.0001 12.7776 11.7778C13.4443 10.7778 14.2221 9.88894 14.9999 9.00005C13.2221 8.00005 11.8888 6.22228 12.2221 4.22228C12.9999 3.88894 13.6665 3.55561 14.4443 3.22228H14.5554C13.5554 4.66672 13.7776 6.00005 15.2221 7.11117C15.7776 7.55561 16.5554 7.4445 16.9999 7.00005C19.2221 5.00005 21.9999 3.4445 24.8888 2.77783C25.9999 3.11117 27.111 3.4445 28.2221 4.00005H28.3332C24.9999 4.11117 21.7776 5.33339 19.111 7.4445C18.6665 7.77783 18.7776 8.66672 19.3332 8.77783C24.8888 10.2223 32.111 9.66672 36.6665 12.8889C36.8888 13.4445 37.111 14.1112 37.3332 14.6667C37.5554 15.3334 37.6665 16.0001 37.7776 16.6667Z" fill="#1D2943"/>
<g opacity="0.7">
<path opacity="0.2" d="M20.4443 6.00011C22.9999 8.22233 22.3332 13.4446 18.9999 17.3334C15.4443 21.4446 10.5554 22.6668 7.99989 20.4446C5.33322 18.1112 5.99989 13.2223 9.44433 9.11122C12.8888 5.22233 17.8888 3.77789 20.4443 6.00011Z" fill="white"/>
</g>
<path d="M11.3331 35.3334C10.1109 34.6667 9.11092 33.7779 8.11092 32.889C7.99981 32.5556 7.8887 32.0001 7.77759 31.6667C8.22203 31.889 8.66648 32.2223 9.22203 32.4445L9.8887 32.7779C10.222 33.6667 10.7776 34.6667 11.3331 35.3334ZM25.3331 37.1112C24.5554 37.3334 23.7776 37.5556 22.9998 37.6668C22.1109 36.7779 21.1109 35.5556 20.4443 34.3334C20.7776 34.2223 21.1109 34.2223 21.4443 34.1112C21.6665 34.1112 21.8887 34.0001 22.222 33.889C22.9998 35.3334 24.1109 36.5556 25.3331 37.1112ZM35.8887 28.6667C35.5554 29.2223 35.222 29.6667 34.8887 30.2223C33.9998 29.0001 32.9998 27.889 31.9998 26.7779C32.3331 26.3334 32.6665 25.7779 32.8887 25.2223C33.9998 26.3334 34.9998 27.4445 35.8887 28.6667ZM37.7776 16.6667C36.9998 15.5556 35.9998 14.5556 34.8887 13.889C34.8887 13.5556 34.7776 13.2223 34.6665 12.889C34.5554 12.5556 34.6665 12.889 34.6665 12.7779C34.5554 12.4445 34.4443 12.0001 34.3331 11.6667C35.1109 12.0001 35.8887 12.4445 36.5554 12.889C37.222 14.1112 37.5554 15.4445 37.7776 16.6667Z" fill="#111D33"/>
</svg>
