<svg width="20" height="20" viewBox="0 0 20 20" fill="none" xmlns="http://www.w3.org/2000/svg">
<path d="M2.5 8.33341L17.5 8.33341M6.66667 1.66675V5.00008M13.3333 1.66675V5.00008M10.8333 18.3334H9.16667C6.83311 18.3334 5.66634 18.3334 4.77504 17.8793C3.99103 17.4798 3.35361 16.8424 2.95414 16.0584C2.5 15.1671 2.5 14.0003 2.5 11.6667L2.5 10.0001C2.5 7.66653 2.5 6.49975 2.95414 5.60845C3.35361 4.82444 3.99103 4.18703 4.77504 3.78755C5.66634 3.33341 6.83311 3.33341 9.16667 3.33341H10.8333C13.1669 3.33341 14.3337 3.33341 15.225 3.78755C16.009 4.18703 16.6464 4.82444 17.0459 5.60845C17.5 6.49975 17.5 7.66653 17.5 10.0001V11.6667C17.5 14.0003 17.5 15.1671 17.0459 16.0584C16.6464 16.8424 16.009 17.4798 15.225 17.8793C14.3337 18.3334 13.1669 18.3334 10.8333 18.3334Z" stroke="white" stroke-width="1.5" stroke-linecap="round" stroke-linejoin="round"/>
</svg>
