<svg width="20" height="20" viewBox="0 0 20 20" fill="none" xmlns="http://www.w3.org/2000/svg">
<path d="M9.99999 7.1153H10.6944C11.2526 7.1153 11.7338 7.4344 11.9546 7.89464M9.99999 7.1153H9.40475C8.5829 7.1153 7.91666 7.76105 7.91666 8.55761C7.91666 9.35418 8.5829 9.99992 9.40475 9.99992H10.5952C11.4171 9.99992 12.0833 10.6457 12.0833 11.4422C12.0833 12.2388 11.4171 12.8845 10.5952 12.8845H9.99999M9.99999 7.1153V6.24992M9.99999 12.8845H9.30554C8.72353 12.8845 8.22513 12.5376 8.01853 12.0454M9.99999 12.8845V13.7499M18.3322 10.8915C18.3249 12.6465 18.2714 13.6218 17.8792 14.3915C17.4797 15.1756 16.8423 15.813 16.0583 16.2124C15.167 16.6666 14.0002 16.6666 11.6667 16.6666H8.33332C5.99977 16.6666 4.833 16.6666 3.9417 16.2124C3.15769 15.813 2.52027 15.1756 2.1208 14.3915C1.66666 13.5002 1.66666 12.3335 1.66666 9.99992C1.66666 7.66637 1.66666 6.49959 2.1208 5.60829C2.52027 4.82428 3.15769 4.18686 3.9417 3.78739C4.833 3.33325 5.99977 3.33325 8.33332 3.33325H10.7739M18.3333 3.33325L15 6.66657M15 3.33325L18.3333 6.66659" stroke="#4B9812" stroke-width="1.5" stroke-linecap="round" stroke-linejoin="round"/>
</svg>
