<svg width="24" height="25" viewBox="0 0 24 25" fill="none" xmlns="http://www.w3.org/2000/svg">
<path d="M8.20925 6.5C8.6596 6.5 8.88477 6.5 9.10252 6.51907C10.0178 6.59925 10.8933 6.93008 11.6329 7.47523C11.8088 7.60492 11.9777 7.75383 12.3155 8.05166L13.3867 8.99603C14.2893 9.79176 14.7405 10.1896 15.0757 10.6612C15.4509 11.1892 15.72 11.7851 15.8679 12.4158C16 12.979 16 13.5807 16 14.7839V15.5M8.20925 6.5C7.08555 6.5 6.5237 6.5 6.05596 6.58993C4.04712 6.97616 2.47616 8.54712 2.08993 10.556C2 11.0237 2 11.5855 2 12.7092V15.5C2 17.3613 2 18.2919 2.24472 19.0451C2.73931 20.5673 3.93273 21.7607 5.45492 22.2553C6.20808 22.5 7.13872 22.5 9 22.5C10.8613 22.5 11.7919 22.5 12.5451 22.2553C14.0673 21.7607 15.2607 20.5673 15.7553 19.0451C16 18.2919 16 17.3613 16 15.5M8.20925 6.5C8.17258 6.5 8.13651 6.5 8.10102 6.5C8.50543 4.51799 10.0658 2.97257 12.056 2.58993C12.5237 2.5 13.0855 2.5 14.2092 2.5C14.6596 2.5 14.8848 2.5 15.1025 2.51907C16.0178 2.59925 16.8933 2.93008 17.6329 3.47523C17.8088 3.60492 17.9777 3.75383 18.3155 4.05166L19.3867 4.99603C20.2893 5.79176 20.7405 6.18962 21.0757 6.66119C21.4509 7.18922 21.72 7.78514 21.8679 8.4158C22 8.97904 22 9.58066 22 10.7839V11.5C22 13.3613 22 14.2919 21.7553 15.0451C21.2607 16.5673 20.0673 17.7607 18.5451 18.2553C17.9222 18.4577 17.178 18.4927 15.8865 18.4987C16 17.8239 16 16.9408 16 15.5M10 8.2978V6.6853C10.5857 6.84743 11.1395 7.1157 11.6329 7.47934C11.8088 7.60903 11.9777 7.75794 12.3155 8.05577L13.3867 9.00015C14.2893 9.79587 14.7405 10.1937 15.0757 10.6653C15.2619 10.9274 15.4221 11.2063 15.5542 11.4978H13.2C12.0799 11.4978 11.5198 11.4978 11.092 11.2798C10.7157 11.0881 10.4097 10.7821 10.218 10.4058C10 9.97795 10 9.4179 10 8.2978Z" stroke="white" stroke-width="1.5" stroke-linecap="round" stroke-linejoin="round"/>
</svg>
