<svg width="32" height="32" viewBox="0 0 32 32" fill="none" xmlns="http://www.w3.org/2000/svg">
<path d="M16 9.39197C7.618 9.39197 0.738667 15.8106 0 24H32C31.2613 15.8106 24.382 9.39197 16 9.39197ZM22.1193 18.0526C22.1193 17.3166 22.716 16.72 23.452 16.72C24.188 16.72 24.7847 17.3166 24.7847 18.0526C24.7847 18.7886 24.188 19.3853 23.452 19.3853C22.716 19.3853 22.1193 18.7886 22.1193 18.0526ZM8.548 19.3853C7.812 19.3853 7.21533 18.7886 7.21533 18.0526C7.21533 17.3166 7.812 16.72 8.548 16.72C9.284 16.72 9.88067 17.3166 9.88067 18.0526C9.88067 18.7886 9.284 19.3853 8.548 19.3853Z" fill="#2A2925"/>
<path d="M22.692 12.8753C22.5987 12.8753 22.5047 12.852 22.4187 12.802C22.1567 12.6506 22.0673 12.316 22.218 12.054L25.6827 6.04862C25.834 5.78596 26.1687 5.69596 26.4307 5.84796C26.6927 5.99929 26.782 6.33396 26.6313 6.59596L23.1667 12.6013C23.0653 12.7773 22.8813 12.8753 22.692 12.8753Z" fill="#2A2925"/>
<path d="M9.308 12.8753C9.11866 12.8753 8.93466 12.7766 8.83333 12.6013L5.36933 6.59596C5.218 6.33396 5.308 5.99929 5.56933 5.84796C5.83066 5.69596 6.166 5.78596 6.31733 6.04862L9.782 12.054C9.93333 12.3166 9.84333 12.6513 9.58133 12.802C9.49533 12.852 9.40133 12.8753 9.308 12.8753Z" fill="#2A2925"/>
</svg>
