<svg width="26" height="26" viewBox="0 0 26 26" fill="none" xmlns="http://www.w3.org/2000/svg">
<path d="M17.875 0H8.125C5.43725 0 3.25 2.18725 3.25 4.875V21.125C3.25 23.8128 5.43725 26 8.125 26H17.875C20.5628 26 22.75 23.8128 22.75 21.125V4.875C22.75 2.18725 20.5628 0 17.875 0ZM21.6667 21.125C21.6667 23.2158 19.9658 24.9167 17.875 24.9167H8.125C6.03417 24.9167 4.33333 23.2158 4.33333 21.125V4.875C4.33333 2.78417 6.03417 1.08333 8.125 1.08333H17.875C19.9658 1.08333 21.6667 2.78417 21.6667 4.875V21.125ZM15.1667 22.2083C15.1667 22.5073 14.924 22.75 14.625 22.75H11.375C11.076 22.75 10.8333 22.5073 10.8333 22.2083C10.8333 21.9093 11.076 21.6667 11.375 21.6667H14.625C14.924 21.6667 15.1667 21.9093 15.1667 22.2083Z" fill="white"/>
</svg>
