<svg width="26" height="26" viewBox="0 0 26 26" fill="none" xmlns="http://www.w3.org/2000/svg">
<path d="M6.5 11.9167V15.1667C6.5 15.7647 6.98642 16.25 7.58333 16.25C8.18025 16.25 8.66667 15.7647 8.66667 15.1667H9.75C9.75 16.3616 8.77825 17.3333 7.58333 17.3333C6.38842 17.3333 5.41667 16.3616 5.41667 15.1667V11.9167C5.41667 10.7218 6.38842 9.75 7.58333 9.75C8.77825 9.75 9.75 10.7218 9.75 11.9167H8.66667C8.66667 11.3187 8.18025 10.8333 7.58333 10.8333C6.98642 10.8333 6.5 11.3187 6.5 11.9167ZM19.5 15.1667C19.5 15.7647 19.0147 16.25 18.4167 16.25C17.8187 16.25 17.3333 15.7647 17.3333 15.1667V9.75H16.25V15.1667C16.25 16.3616 17.2218 17.3333 18.4167 17.3333C19.6116 17.3333 20.5833 16.3616 20.5833 15.1667V9.75H19.5V15.1667ZM15.1667 11.9167C15.1667 13.1116 14.1949 14.0833 13 14.0833H11.9167V17.3333H10.8333V9.75H13C14.1949 9.75 15.1667 10.7218 15.1667 11.9167ZM14.0833 11.9167C14.0833 11.3187 13.5969 10.8333 13 10.8333H11.9167V13H13C13.5969 13 14.0833 12.5147 14.0833 11.9167ZM23.8333 6.5V8.66667H26V9.75H23.8333V12.4583H26V13.5417H23.8333V16.25H26V17.3333H23.8333V19.5H26V20.5833H23.8333V23.8333H20.5833V26H19.5V23.8333H17.3333V26H16.25V23.8333H13.5417V26H12.4583V23.8333H9.75V26H8.66667V23.8333H6.5V26H5.41667V23.8333H2.16667V20.5833H0V19.5H2.16667V17.3333H0V16.25H2.16667V13.5417H0V12.4583H2.16667V9.75H0V8.66667H2.16667V6.5H0V5.41667H2.16667V4.875C2.16667 3.38108 3.38217 2.16667 4.875 2.16667H5.41667V0H6.5V2.16667H8.66667V0H9.75V2.16667H12.4583V0H13.5417V2.16667H16.25V0H17.3333V2.16667H19.5V0H20.5833V2.16667H21.125C22.6189 2.16667 23.8333 3.38108 23.8333 4.875V5.41667H26V6.5H23.8333ZM22.75 4.875C22.75 3.97908 22.0209 3.25 21.125 3.25H4.875C3.97908 3.25 3.25 3.97908 3.25 4.875V22.75H22.75V4.875Z" fill="#D9D9D9"/>
</svg>
