<svg width="26" height="26" viewBox="0 0 26 26" fill="none" xmlns="http://www.w3.org/2000/svg">
<g clip-path="url(#clip0_2023_215)">
<path d="M13.0422 0.00216667C13.0282 0.00216667 13.0141 0 13 0C12.9946 0 12.9903 0 12.9848 0C12.9827 0 12.9816 0 12.9794 0C5.82075 0.0119167 0 5.83917 0 13C0 20.1608 5.83158 26 13 26C20.1684 26 26 20.1684 26 13C26 5.83158 20.1912 0.0249167 13.0422 0.00216667ZM23.6015 7.58333H18.3863C17.2304 4.69192 15.4483 2.40392 14.3444 1.16458C18.3896 1.62067 21.8205 4.11017 23.6026 7.58333H23.6015ZM18.4167 13C18.4167 14.5243 18.1003 15.9824 17.6247 17.3333H8.37525C7.89967 15.9824 7.58333 14.5243 7.58333 13C7.58333 11.4758 7.89967 10.0165 8.37417 8.66667H17.6247C18.1003 10.0176 18.4167 11.4758 18.4167 13ZM17.2012 18.4167C15.8698 21.4912 13.8255 23.8225 13 24.687C12.1745 23.8225 10.1303 21.4912 8.79883 18.4167H17.2001H17.2012ZM8.79775 7.58333C10.1292 4.50558 12.1745 2.17533 13 1.31192C13.8255 2.17642 15.8698 4.50775 17.2012 7.58333H8.79775ZM11.6534 1.16458C10.543 2.41042 8.76308 4.70058 7.61258 7.58333H2.3985C4.18058 4.11125 7.60933 1.62283 11.6534 1.16458ZM1.911 8.66667H7.22367C6.78708 10.0176 6.5 11.4714 6.5 13C6.5 14.5286 6.78708 15.9813 7.22475 17.3333H1.911C1.38342 15.9878 1.08333 14.5297 1.08333 13C1.08333 11.4703 1.38342 10.0122 1.911 8.66667ZM2.3985 18.4167H7.61475C8.77067 21.3081 10.5528 23.5961 11.6567 24.8354C7.6115 24.3793 4.18058 21.8898 2.3985 18.4167ZM14.3433 24.8354C15.4473 23.5961 17.2293 21.307 18.3853 18.4167H23.6004C21.8183 21.8898 18.3885 24.3793 14.3433 24.8354ZM24.089 17.3333H18.7753C19.2129 15.9813 19.5 14.5286 19.5 13C19.5 11.4714 19.2129 10.0187 18.7753 8.66667H24.089C24.6166 10.0122 24.9167 11.4703 24.9167 13C24.9167 14.5297 24.6166 15.9878 24.089 17.3333Z" fill="white"/>
</g>
<defs>
<clipPath id="clip0_2023_215">
<rect width="26" height="26" fill="white"/>
</clipPath>
</defs>
</svg>
