<svg width="26" height="26" viewBox="0 0 26 26" fill="none" xmlns="http://www.w3.org/2000/svg">
<path d="M12.9784 25.9707L12.3002 25.6316C9.92341 24.4432 2.16675 20.0081 2.16675 12.8483V5.56289C2.16675 4.39397 2.911 3.36155 4.01708 2.99322L13.0001 0.0151367L21.9777 2.99214C23.0881 3.36047 23.8334 4.39289 23.8334 5.56289V12.8494C23.8334 20.9733 16.0637 24.7303 13.6826 25.6891L12.9784 25.9718V25.9707ZM4.35833 4.0213C3.69533 4.24122 3.25008 4.86089 3.25008 5.5618V12.8472C3.25008 19.3862 10.5474 23.5441 12.7845 24.6621L13.0272 24.7834L13.2785 24.6826C15.5004 23.7889 22.7501 20.2919 22.7501 12.8483V5.5618C22.7501 4.86089 22.3027 4.24014 21.6364 4.01914L13.0001 1.15589L4.35833 4.0213Z" fill="white"/>
</svg>
