<svg width="26" height="26" viewBox="0 0 26 26" fill="none" xmlns="http://www.w3.org/2000/svg">
<path d="M21.125 1.08325H4.875C2.18725 1.08325 0 3.2705 0 5.95825V20.0416C0 22.7293 2.18725 24.9166 4.875 24.9166H21.125C23.8128 24.9166 26 22.7293 26 20.0416V5.95825C26 3.2705 23.8128 1.08325 21.125 1.08325ZM24.9167 20.0416C24.9167 22.1324 23.2158 23.8333 21.125 23.8333H4.875C2.78417 23.8333 1.08333 22.1324 1.08333 20.0416V5.95825C1.08333 3.86742 2.78417 2.16659 4.875 2.16659H21.125C23.2158 2.16659 24.9167 3.86742 24.9167 5.95825V20.0416ZM21.6667 7.04159C21.6667 7.34059 21.424 7.58325 21.125 7.58325H10.2917C9.99267 7.58325 9.75 7.34059 9.75 7.04159C9.75 6.74259 9.99267 6.49992 10.2917 6.49992H21.125C21.424 6.49992 21.6667 6.74259 21.6667 7.04159ZM6.5 7.04159C6.5 7.63959 6.01467 8.12492 5.41667 8.12492C4.81867 8.12492 4.33333 7.63959 4.33333 7.04159C4.33333 6.44359 4.81867 5.95825 5.41667 5.95825C6.01467 5.95825 6.5 6.44359 6.5 7.04159ZM21.6667 12.9999C21.6667 13.2989 21.424 13.5416 21.125 13.5416H10.2917C9.99267 13.5416 9.75 13.2989 9.75 12.9999C9.75 12.7009 9.99267 12.4583 10.2917 12.4583H21.125C21.424 12.4583 21.6667 12.7009 21.6667 12.9999ZM6.5 12.9999C6.5 13.5979 6.01467 14.0833 5.41667 14.0833C4.81867 14.0833 4.33333 13.5979 4.33333 12.9999C4.33333 12.4019 4.81867 11.9166 5.41667 11.9166C6.01467 11.9166 6.5 12.4019 6.5 12.9999ZM21.6667 18.9583C21.6667 19.2573 21.424 19.4999 21.125 19.4999H10.2917C9.99267 19.4999 9.75 19.2573 9.75 18.9583C9.75 18.6593 9.99267 18.4166 10.2917 18.4166H21.125C21.424 18.4166 21.6667 18.6593 21.6667 18.9583ZM6.5 18.9583C6.5 19.5563 6.01467 20.0416 5.41667 20.0416C4.81867 20.0416 4.33333 19.5563 4.33333 18.9583C4.33333 18.3603 4.81867 17.8749 5.41667 17.8749C6.01467 17.8749 6.5 18.3603 6.5 18.9583Z" fill="white"/>
</svg>
