<svg width="26" height="26" viewBox="0 0 26 26" fill="none" xmlns="http://www.w3.org/2000/svg">
<g clip-path="url(#clip0_2024_331)">
<path d="M21.125 4.33333H16.25V3.25C16.25 1.45817 14.7918 0 13 0C11.2082 0 9.75 1.45817 9.75 3.25V4.33333H4.875C2.18725 4.33333 0 6.52058 0 9.20833V21.125C0 23.8128 2.18725 26 4.875 26H21.125C23.8128 26 26 23.8128 26 21.125V9.20833C26 6.52058 23.8128 4.33333 21.125 4.33333ZM10.8333 3.25C10.8333 2.05508 11.8051 1.08333 13 1.08333C14.1949 1.08333 15.1667 2.05508 15.1667 3.25V6.5C15.1667 7.098 14.6813 7.58333 14.0833 7.58333H11.9167C11.3187 7.58333 10.8333 7.098 10.8333 6.5V3.25ZM24.9167 21.125C24.9167 23.2158 23.2158 24.9167 21.125 24.9167H4.875C2.78417 24.9167 1.08333 23.2158 1.08333 21.125V9.20833C1.08333 7.1175 2.78417 5.41667 4.875 5.41667H9.75V6.5C9.75 7.69492 10.7218 8.66667 11.9167 8.66667H14.0833C15.2783 8.66667 16.25 7.69492 16.25 6.5V5.41667H21.125C23.2158 5.41667 24.9167 7.1175 24.9167 9.20833V21.125ZM9.75 11.9167H6.5C5.30508 11.9167 4.33333 12.8884 4.33333 14.0833V19.5C4.33333 20.6949 5.30508 21.6667 6.5 21.6667H9.75C10.9449 21.6667 11.9167 20.6949 11.9167 19.5V14.0833C11.9167 12.8884 10.9449 11.9167 9.75 11.9167ZM10.8333 19.5C10.8333 20.098 10.348 20.5833 9.75 20.5833H6.5C5.902 20.5833 5.41667 20.098 5.41667 19.5V14.0833C5.41667 13.4853 5.902 13 6.5 13H9.75C10.348 13 10.8333 13.4853 10.8333 14.0833V19.5ZM21.6667 16.7917C21.6667 17.0907 21.424 17.3333 21.125 17.3333H14.625C14.326 17.3333 14.0833 17.0907 14.0833 16.7917C14.0833 16.4927 14.326 16.25 14.625 16.25H21.125C21.424 16.25 21.6667 16.4927 21.6667 16.7917ZM21.6667 12.4583C21.6667 12.7573 21.424 13 21.125 13H14.625C14.326 13 14.0833 12.7573 14.0833 12.4583C14.0833 12.1593 14.326 11.9167 14.625 11.9167H21.125C21.424 11.9167 21.6667 12.1593 21.6667 12.4583ZM19.5 21.125C19.5 21.424 19.2573 21.6667 18.9583 21.6667H14.625C14.326 21.6667 14.0833 21.424 14.0833 21.125C14.0833 20.826 14.326 20.5833 14.625 20.5833H18.9583C19.2573 20.5833 19.5 20.826 19.5 21.125Z" fill="white"/>
</g>
<defs>
<clipPath id="clip0_2024_331">
<rect width="26" height="26" fill="white"/>
</clipPath>
</defs>
</svg>
