<svg width="26" height="26" viewBox="0 0 26 26" fill="none" xmlns="http://www.w3.org/2000/svg">
<path d="M18.4167 14.625C18.4167 14.924 18.1741 15.1667 17.8751 15.1667H8.12508C7.82608 15.1667 7.58341 14.924 7.58341 14.625C7.58341 14.326 7.82608 14.0833 8.12508 14.0833H17.8751C18.1741 14.0833 18.4167 14.326 18.4167 14.625ZM14.6251 18.4167H8.12508C7.82608 18.4167 7.58341 18.6593 7.58341 18.9583C7.58341 19.2573 7.82608 19.5 8.12508 19.5H14.6251C14.9241 19.5 15.1667 19.2573 15.1667 18.9583C15.1667 18.6593 14.9241 18.4167 14.6251 18.4167ZM23.8334 10.8171V21.125C23.8334 23.8128 21.6462 26 18.9584 26H7.04175C4.354 26 2.16675 23.8128 2.16675 21.125V4.875C2.16675 2.18725 4.354 0 7.04175 0H13.0163C14.8959 0 16.665 0.732333 17.9964 2.06267L21.7707 5.83808C23.1011 7.16733 23.8334 8.93533 23.8334 10.8171ZM17.2294 2.8275C16.6325 2.23167 15.9294 1.78858 15.1667 1.49392V7.04058C15.1667 7.9365 15.8958 8.66558 16.7917 8.66558H22.3395C22.0437 7.90292 21.6007 7.19875 21.0048 6.60292L17.2294 2.8275ZM22.7501 10.8171C22.7501 10.4542 22.7089 10.0988 22.6461 9.75H16.7917C15.2978 9.75 14.0834 8.5345 14.0834 7.04167V1.18733C13.7335 1.1245 13.3782 1.08333 13.0163 1.08333H7.04175C4.95091 1.08333 3.25008 2.78417 3.25008 4.875V21.125C3.25008 23.2158 4.95091 24.9167 7.04175 24.9167H18.9584C21.0492 24.9167 22.7501 23.2158 22.7501 21.125V10.8171Z" fill="white"/>
</svg>
