<svg width="26" height="26" viewBox="0 0 26 26" fill="none" xmlns="http://www.w3.org/2000/svg">
<g clip-path="url(#clip0_2023_272)">
<path d="M21.7751 5.83917L18.0051 2.05833C16.6726 0.725833 14.9067 0 13.0217 0H7.04175C4.35508 0 2.16675 2.18833 2.16675 4.875V21.125C2.16675 23.8117 4.35508 26 7.04175 26H10.2917C10.5951 26 10.8334 25.7617 10.8334 25.4583C10.8334 25.155 10.5951 24.9167 10.2917 24.9167H7.04175C4.95091 24.9167 3.25008 23.2158 3.25008 21.125V4.875C3.25008 2.78417 4.95091 1.08333 7.04175 1.08333H13.0109C13.3684 1.08333 13.7259 1.11583 14.0834 1.18083V7.04167C14.0834 8.53667 15.2967 9.75 16.7917 9.75H22.6526C22.7176 10.0967 22.7501 10.4542 22.7501 10.8225V21.125C22.7501 22.4792 22.0242 23.7358 20.8542 24.4075C20.5942 24.5592 20.5076 24.8842 20.6592 25.1442C20.8109 25.4042 21.1467 25.4908 21.3959 25.3392C22.9017 24.4725 23.8334 22.8475 23.8334 21.1142V10.8225C23.8334 8.9375 23.0967 7.17167 21.7751 5.83917ZM16.7917 8.66667C15.8926 8.66667 15.1667 7.94083 15.1667 7.04167V1.48417C15.9359 1.77667 16.6292 2.23167 17.2251 2.8275L20.9951 6.60833C21.5909 7.20417 22.0459 7.90833 22.3384 8.66667H16.7809H16.7917ZM15.7084 14.0833C13.6176 14.0833 11.9167 15.7842 11.9167 17.875C11.9167 18.9042 12.3284 19.8467 13.0001 20.5292V24.8517C13.0001 25.3175 13.2817 25.74 13.7151 25.9242C13.8559 25.9783 14.0076 26.0108 14.1592 26.0108C14.4626 26.0108 14.7551 25.8917 14.9717 25.675L15.7084 24.9383L16.4451 25.675C16.7809 26.0108 17.2684 26.1083 17.7017 25.9242C18.1351 25.74 18.4167 25.3283 18.4167 24.8517V20.5292C19.0884 19.8467 19.5001 18.9042 19.5001 17.875C19.5001 15.7842 17.7992 14.0833 15.7084 14.0833ZM15.7084 15.1667C17.2034 15.1667 18.4167 16.38 18.4167 17.875C18.4167 19.37 17.2034 20.5833 15.7084 20.5833C14.2134 20.5833 13.0001 19.37 13.0001 17.875C13.0001 16.38 14.2134 15.1667 15.7084 15.1667ZM17.2142 24.895L15.7084 23.3892L14.2026 24.895L14.0834 24.8408V21.2983C14.5709 21.5367 15.1234 21.6667 15.7084 21.6667C16.2934 21.6667 16.8459 21.5367 17.3334 21.2983V24.8408L17.2142 24.895Z" fill="white"/>
</g>
<defs>
<clipPath id="clip0_2023_272">
<rect width="26" height="26" fill="white"/>
</clipPath>
</defs>
</svg>
