<svg width="26" height="26" viewBox="0 0 26 26" fill="none" xmlns="http://www.w3.org/2000/svg">
<g clip-path="url(#clip0_2023_289)">
<path d="M13 0C5.83158 0 0 5.83158 0 13C0 20.1684 5.83158 26 13 26C20.1684 26 26 20.1684 26 13C26 5.83158 20.1684 0 13 0ZM7.58333 23.6134V22.75C7.58333 19.7633 10.0133 17.3333 13 17.3333C15.9868 17.3333 18.4167 19.7633 18.4167 22.75V23.6134C16.7906 24.4465 14.9489 24.9167 13 24.9167C11.0511 24.9167 9.20942 24.4465 7.58333 23.6134ZM19.5 22.9829V22.75C19.5 19.1653 16.5848 16.25 13 16.25C9.41525 16.25 6.5 19.1653 6.5 22.75V22.9829C3.24133 20.8542 1.08333 17.1741 1.08333 13C1.08333 6.42958 6.42958 1.08333 13 1.08333C19.5704 1.08333 24.9167 6.42958 24.9167 13C24.9167 17.1741 22.7587 20.8542 19.5 22.9829ZM13 5.41667C10.6102 5.41667 8.66667 7.36017 8.66667 9.75C8.66667 12.1398 10.6102 14.0833 13 14.0833C15.3898 14.0833 17.3333 12.1398 17.3333 9.75C17.3333 7.36017 15.3898 5.41667 13 5.41667ZM13 13C11.2082 13 9.75 11.5418 9.75 9.75C9.75 7.95817 11.2082 6.5 13 6.5C14.7918 6.5 16.25 7.95817 16.25 9.75C16.25 11.5418 14.7918 13 13 13Z" fill="white"/>
</g>
<defs>
<clipPath id="clip0_2023_289">
<rect width="26" height="26" fill="white"/>
</clipPath>
</defs>
</svg>
