<svg width="26" height="26" viewBox="0 0 26 26" fill="none" xmlns="http://www.w3.org/2000/svg">
<path d="M15.1667 5.95833V4.875C15.1667 4.576 15.4093 4.33333 15.7083 4.33333C16.0073 4.33333 16.25 4.576 16.25 4.875V5.95833C16.25 6.25733 16.0073 6.5 15.7083 6.5C15.4093 6.5 15.1667 6.25733 15.1667 5.95833ZM10.2917 6.5C10.5907 6.5 10.8333 6.25733 10.8333 5.95833V4.875C10.8333 4.576 10.5907 4.33333 10.2917 4.33333C9.99267 4.33333 9.75 4.576 9.75 4.875V5.95833C9.75 6.25733 9.99267 6.5 10.2917 6.5ZM22.75 12.4583V16.25C22.75 21.6255 18.3766 26 13 26C7.62342 26 3.25 21.6255 3.25 16.25V12.4583C3.25 10.9514 4.1405 9.65792 5.41667 9.04692V2.70833C5.41667 1.2155 6.63108 0 8.125 0H17.875C19.3689 0 20.5833 1.2155 20.5833 2.70833V9.04692C21.8595 9.65792 22.75 10.9514 22.75 12.4583ZM6.5 8.72192C6.67875 8.69592 6.85642 8.66667 7.04167 8.66667H18.9583C19.1436 8.66667 19.3213 8.69592 19.5 8.72192V2.70833C19.5 1.81242 18.7709 1.08333 17.875 1.08333H8.125C7.22908 1.08333 6.5 1.81242 6.5 2.70833V8.72192ZM21.6667 12.4583C21.6667 10.9655 20.4523 9.75 18.9583 9.75H7.04167C5.54775 9.75 4.33333 10.9655 4.33333 12.4583V16.25C4.33333 21.0286 8.22142 24.9167 13 24.9167C17.7786 24.9167 21.6667 21.0286 21.6667 16.25V12.4583Z" fill="white"/>
</svg>
