<svg width="26" height="26" viewBox="0 0 26 26" fill="none" xmlns="http://www.w3.org/2000/svg">
<g clip-path="url(#clip0_2023_248)">
<path d="M25.675 20.2908L15.0258 2.25325C14.6033 1.52742 13.845 1.08325 13 1.08325C12.155 1.08325 11.4075 1.51659 10.985 2.25325L0.325 20.2908C-0.108333 21.0383 -0.108333 21.9158 0.325 22.6524C0.7475 23.3891 1.50583 23.8224 2.35083 23.8224H23.66C24.505 23.8224 25.2633 23.3783 25.6858 22.6524C26.1083 21.9158 26.1083 21.0274 25.6858 20.2908H25.675ZM24.7433 22.1216C24.5158 22.5116 24.115 22.7499 23.66 22.7499H2.34C1.885 22.7499 1.48417 22.5116 1.25667 22.1216C1.02917 21.7208 1.02917 21.2441 1.25667 20.8433L11.9167 2.79492C12.3717 2.00409 13.6283 2.00409 14.0833 2.79492L24.7433 20.8324C24.9708 21.2333 24.9708 21.7099 24.7433 22.1108V22.1216ZM13.5417 15.1666H12.4583V8.66659H13.5417V15.1666ZM14.0833 18.4166C14.0833 19.0124 13.5958 19.4999 13 19.4999C12.4042 19.4999 11.9167 19.0124 11.9167 18.4166C11.9167 17.8208 12.4042 17.3333 13 17.3333C13.5958 17.3333 14.0833 17.8208 14.0833 18.4166Z" fill="white"/>
</g>
<defs>
<clipPath id="clip0_2023_248">
<rect width="26" height="26" fill="white"/>
</clipPath>
</defs>
</svg>
