<svg width="26" height="26" viewBox="0 0 26 26" fill="none" xmlns="http://www.w3.org/2000/svg">
<path d="M25.61 9.18675L26 9.07842V4.87508C26 3.38008 24.7867 2.16675 23.2917 2.16675H2.70833C1.21333 2.16675 0 3.38008 0 4.87508V9.06758L0.39 9.18675C0.465833 9.20841 2.16667 9.73925 2.16667 11.3751C2.16667 13.0109 0.465833 13.5417 0.39 13.5634L0 13.6717V23.8334H26V13.6826L25.61 13.5634C25.5342 13.5417 23.8333 13.0109 23.8333 11.3751C23.8333 9.73925 25.5342 9.20841 25.61 9.18675ZM21.6667 22.7501V20.5834H20.5833V22.7501H16.25V20.5834H15.1667V22.7501H10.8333V20.5834H9.75V22.7501H5.41667V20.5834H4.33333V22.7501H1.08333V19.5001H24.9167V22.7501H21.6667ZM24.9167 14.4626V18.4167H1.08333V14.4626C1.99333 14.0617 3.25 13.0867 3.25 11.3751C3.25 9.66341 1.99333 8.68842 1.08333 8.28758V4.87508C1.08333 3.97591 1.80917 3.25008 2.70833 3.25008H23.2917C24.1908 3.25008 24.9167 3.97591 24.9167 4.87508V8.28758C24.0067 8.68842 22.75 9.66341 22.75 11.3751C22.75 13.0867 24.0067 14.0617 24.9167 14.4626ZM12.4583 6.50008H13.5417V16.2501H12.4583V6.50008ZM6.5 6.50008H7.58333V16.2501H6.5V6.50008ZM18.4167 6.50008H19.5V16.2501H18.4167V6.50008Z" fill="white"/>
</svg>
