<svg width="26" height="26" viewBox="0 0 26 26" fill="none" xmlns="http://www.w3.org/2000/svg">
<g clip-path="url(#clip0_2023_297)">
<path d="M26 4.875V21.125C26 23.8128 23.8128 26 21.125 26H14.625C14.326 26 14.0833 25.7573 14.0833 25.4583C14.0833 25.1593 14.326 24.9167 14.625 24.9167H21.125C23.2158 24.9167 24.9167 23.2158 24.9167 21.125V4.875C24.9167 2.78417 23.2158 1.08333 21.125 1.08333H11.375C9.28417 1.08333 7.58333 2.78417 7.58333 4.875V10.2917C7.58333 10.5907 7.34067 10.8333 7.04167 10.8333C6.74267 10.8333 6.5 10.5907 6.5 10.2917V4.875C6.5 2.18725 8.68725 0 11.375 0H21.125C23.8128 0 26 2.18725 26 4.875ZM11.375 5.41667H21.125C21.424 5.41667 21.6667 5.174 21.6667 4.875C21.6667 4.576 21.424 4.33333 21.125 4.33333H11.375C11.076 4.33333 10.8333 4.576 10.8333 4.875C10.8333 5.174 11.076 5.41667 11.375 5.41667ZM11.375 9.75H21.125C21.424 9.75 21.6667 9.50733 21.6667 9.20833C21.6667 8.90933 21.424 8.66667 21.125 8.66667H11.375C11.076 8.66667 10.8333 8.90933 10.8333 9.20833C10.8333 9.50733 11.076 9.75 11.375 9.75ZM11.375 14.0833H18.9583C19.2573 14.0833 19.5 13.8407 19.5 13.5417C19.5 13.2427 19.2573 13 18.9583 13H11.375C11.076 13 10.8333 13.2427 10.8333 13.5417C10.8333 13.8407 11.076 14.0833 11.375 14.0833ZM19.5 16.25C21.2918 16.25 22.75 17.7082 22.75 19.5C22.75 21.2918 21.2918 22.75 19.5 22.75C17.7082 22.75 16.25 21.2918 16.25 19.5C16.25 17.7082 17.7082 16.25 19.5 16.25ZM19.5 17.3333C18.3051 17.3333 17.3333 18.3051 17.3333 19.5C17.3333 20.6949 18.3051 21.6667 19.5 21.6667C20.6949 21.6667 21.6667 20.6949 21.6667 19.5C21.6667 18.3051 20.6949 17.3333 19.5 17.3333ZM11.9167 25.4583C11.9167 25.7573 11.674 26 11.375 26H0.541667C0.242667 26 0 25.7573 0 25.4583C0 25.1593 0.242667 24.9167 0.541667 24.9167H1.08333V23.8333C1.08333 22.0415 2.5415 20.5833 4.33333 20.5833H4.74283C3.75158 17.9736 3.25 16.3193 3.25 15.665C3.25 14.17 4.4395 13 5.95833 13C7.47717 13 8.66667 14.17 8.66667 15.665C8.66667 16.3193 8.164 17.9736 7.17383 20.5833H7.58333C9.37517 20.5833 10.8333 22.0415 10.8333 23.8333V24.9167H11.375C11.674 24.9167 11.9167 25.1593 11.9167 25.4583ZM5.902 20.5833H6.01467C7.4685 16.7993 7.58333 15.8643 7.58333 15.665C7.58333 14.7788 6.86942 14.0833 5.95833 14.0833C5.04725 14.0833 4.33333 14.7788 4.33333 15.665C4.33333 15.8643 4.44817 16.7993 5.902 20.5833ZM2.16667 24.9167H9.75V23.8333C9.75 22.6384 8.77825 21.6667 7.58333 21.6667H4.33333C3.13842 21.6667 2.16667 22.6384 2.16667 23.8333V24.9167Z" fill="white"/>
</g>
<defs>
<clipPath id="clip0_2023_297">
<rect width="26" height="26" fill="white"/>
</clipPath>
</defs>
</svg>
