<svg width="26" height="26" viewBox="0 0 26 26" fill="none" xmlns="http://www.w3.org/2000/svg">
<g clip-path="url(#clip0_2023_231)">
<path d="M17.2294 17.4883C17.4428 17.6973 17.4472 18.0408 17.2381 18.2542L14.5135 21.0383C14.1007 21.4511 13.5602 21.6602 13.0207 21.6656C12.4801 21.6613 11.9005 21.4533 11.4899 21.0427L8.761 18.2542C8.55191 18.0408 8.55625 17.6973 8.76967 17.4883C8.98525 17.2792 9.32867 17.2846 9.53558 17.4969L12.2602 20.2811C12.3208 20.3418 12.3869 20.3927 12.4584 20.436V12.4594C12.4584 12.1604 12.7011 11.9178 13.0001 11.9178C13.2991 11.9178 13.5417 12.1604 13.5417 12.4594V20.436C13.6132 20.3927 13.6815 20.3407 13.7443 20.2778L16.4646 17.498C16.6737 17.2857 17.0171 17.2803 17.2305 17.4893L17.2294 17.4883ZM23.8334 10.8182V21.1261C23.8334 23.8138 21.6462 26.0011 18.9584 26.0011H7.04175C4.354 26.0011 2.16675 23.8138 2.16675 21.1261V4.875C2.16675 2.18725 4.354 0 7.04175 0H13.0163C14.8959 0 16.665 0.732333 17.9964 2.06267L21.7707 5.83808C23.1011 7.16733 23.8334 8.93533 23.8334 10.8171V10.8182ZM15.1667 7.04275C15.1667 7.93867 15.8958 8.66775 16.7917 8.66775H22.3514C22.0557 7.90292 21.6007 7.202 21.0037 6.60508L17.2294 2.82967C16.6314 2.23275 15.9305 1.77883 15.1667 1.48308V7.04275ZM22.7501 10.8182C22.7501 10.4563 22.7176 10.0999 22.6547 9.75109H16.7917C15.2978 9.75109 14.0834 8.53558 14.0834 7.04275V1.17867C13.7346 1.11583 13.3782 1.08333 13.0163 1.08333H7.04175C4.95091 1.08333 3.25008 2.78417 3.25008 4.875V21.125C3.25008 23.2158 4.95091 24.9167 7.04175 24.9167H18.9584C21.0492 24.9167 22.7501 23.2158 22.7501 21.125V10.8171V10.8182ZM13.0207 21.6656C13.0272 21.6656 13.0131 21.6656 13.0207 21.6656Z" fill="white"/>
</g>
<defs>
<clipPath id="clip0_2023_231">
<rect width="26" height="26" fill="white"/>
</clipPath>
</defs>
</svg>
