<svg width="26" height="26" viewBox="0 0 26 26" fill="none" xmlns="http://www.w3.org/2000/svg">
<g clip-path="url(#clip0_2023_305)">
<path d="M11.375 14.0833H10.2917C9.99267 14.0833 9.75 14.3259 9.75 14.6249C9.75 14.9239 9.99267 15.1666 10.2917 15.1666H11.375C11.674 15.1666 11.9167 14.9239 11.9167 14.6249C11.9167 14.3259 11.674 14.0833 11.375 14.0833Z" fill="white"/>
<path d="M15.7084 14.0833H14.625C14.326 14.0833 14.0834 14.3259 14.0834 14.6249C14.0834 14.9239 14.326 15.1666 14.625 15.1666H15.7084C16.0074 15.1666 16.25 14.9239 16.25 14.6249C16.25 14.3259 16.0074 14.0833 15.7084 14.0833Z" fill="white"/>
<path d="M20.0416 14.0833H18.9583C18.6593 14.0833 18.4166 14.3259 18.4166 14.6249C18.4166 14.9239 18.6593 15.1666 18.9583 15.1666H20.0416C20.3406 15.1666 20.5833 14.9239 20.5833 14.6249C20.5833 14.3259 20.3406 14.0833 20.0416 14.0833Z" fill="white"/>
<path d="M11.375 19.5H10.2917C9.99267 19.5 9.75 19.7427 9.75 20.0417C9.75 20.3407 9.99267 20.5833 10.2917 20.5833H11.375C11.674 20.5833 11.9167 20.3407 11.9167 20.0417C11.9167 19.7427 11.674 19.5 11.375 19.5Z" fill="white"/>
<path d="M7.04163 14.0833H5.95829C5.65929 14.0833 5.41663 14.3259 5.41663 14.6249C5.41663 14.9239 5.65929 15.1666 5.95829 15.1666H7.04163C7.34063 15.1666 7.58329 14.9239 7.58329 14.6249C7.58329 14.3259 7.34063 14.0833 7.04163 14.0833Z" fill="white"/>
<path d="M7.04163 19.5H5.95829C5.65929 19.5 5.41663 19.7427 5.41663 20.0417C5.41663 20.3407 5.65929 20.5833 5.95829 20.5833H7.04163C7.34063 20.5833 7.58329 20.3407 7.58329 20.0417C7.58329 19.7427 7.34063 19.5 7.04163 19.5Z" fill="white"/>
<path d="M15.7084 19.5H14.625C14.326 19.5 14.0834 19.7427 14.0834 20.0417C14.0834 20.3407 14.326 20.5833 14.625 20.5833H15.7084C16.0074 20.5833 16.25 20.3407 16.25 20.0417C16.25 19.7427 16.0074 19.5 15.7084 19.5Z" fill="white"/>
<path d="M20.0416 19.5H18.9583C18.6593 19.5 18.4166 19.7427 18.4166 20.0417C18.4166 20.3407 18.6593 20.5833 18.9583 20.5833H20.0416C20.3406 20.5833 20.5833 20.3407 20.5833 20.0417C20.5833 19.7427 20.3406 19.5 20.0416 19.5Z" fill="white"/>
<path d="M21.125 2.16667H19.5V0.541667C19.5 0.242667 19.2573 0 18.9583 0C18.6593 0 18.4167 0.242667 18.4167 0.541667V2.16667H7.58333V0.541667C7.58333 0.242667 7.34067 0 7.04167 0C6.74267 0 6.5 0.242667 6.5 0.541667V2.16667H4.875C2.18725 2.16667 0 4.35392 0 7.04167V21.125C0 23.8128 2.18725 26 4.875 26H21.125C23.8128 26 26 23.8128 26 21.125V7.04167C26 4.35392 23.8128 2.16667 21.125 2.16667ZM4.875 3.25H21.125C23.2158 3.25 24.9167 4.95083 24.9167 7.04167V8.66667H1.08333V7.04167C1.08333 4.95083 2.78417 3.25 4.875 3.25ZM21.125 24.9167H4.875C2.78417 24.9167 1.08333 23.2158 1.08333 21.125V9.75H24.9167V21.125C24.9167 23.2158 23.2158 24.9167 21.125 24.9167Z" fill="white"/>
</g>
<defs>
<clipPath id="clip0_2023_305">
<rect width="26" height="26" fill="white"/>
</clipPath>
</defs>
</svg>
