<svg width="270" height="28" viewBox="0 0 270 28" fill="none" xmlns="http://www.w3.org/2000/svg">
<g clip-path="url(#clip0_2_331)">
<path fill-rule="evenodd" clip-rule="evenodd" d="M25.4255 13.6758C26.6192 14.2063 27.541 14.9291 28.1909 15.8443C28.8408 16.7594 29.1657 17.8536 29.1657 19.1269C29.1657 22.0714 27.9522 24.2863 25.525 25.7718C23.0978 27.2572 19.9744 28 16.1546 28H0.0796204L5.65015 0.147339H20.412C23.6748 0.147339 26.155 0.72428 27.8527 1.87818C29.5504 3.03208 30.3992 4.67007 30.3992 6.79218C30.3992 8.35724 29.9615 9.72996 29.0861 10.9104C28.2108 12.0908 26.9906 13.0126 25.4255 13.6758ZM13.5683 6.7126L12.7327 10.8507H17.5074C19.5765 10.8507 20.611 10.0417 20.611 8.42355C20.611 7.86649 20.3988 7.44208 19.9744 7.15029C19.5499 6.8585 18.9398 6.7126 18.144 6.7126H13.5683ZM16.6718 21.4347C17.6268 21.4347 18.396 21.2159 18.9796 20.7782C19.5632 20.3405 19.855 19.7105 19.855 18.8882C19.855 18.3046 19.6361 17.8537 19.1985 17.5353C18.7608 17.217 18.2104 17.0579 17.5472 17.0579H11.4992L10.6238 21.4347H16.6718ZM44.2061 7.22987L43.5695 10.4926H55.3472L53.9944 17.2568H42.1769L41.4607 20.9174H55.4268L53.9944 28H30.8369L36.4074 0.147339H59.0476L57.6152 7.22987H44.2061ZM67.7615 7.42881H59.6047L61.0769 0.147339H86.7809L85.3087 7.42881H77.1518L73.0535 28H63.6632L67.7615 7.42881Z" fill="#FFCE06"/>
<path fill-rule="evenodd" clip-rule="evenodd" d="M137.918 0.147339L123.434 28H113.368L111.776 13.3177L104.136 28H94.0697L90.7274 0.147339H99.9983L101.789 16.0233L110.065 0.147339H118.699L120.291 16.2621L128.687 0.147339H137.918ZM140.584 0.147339H149.974L144.403 28H135.013L140.584 0.147339ZM181.965 0.147339L176.394 28H168.675L160.677 15.0286L158.091 28H148.939L154.51 0.147339H162.229L170.227 13.1187L172.813 0.147339H181.965ZM213.955 0.147339L208.385 28H200.666L192.668 15.0286L190.082 28H180.93L186.501 0.147339H194.22L202.217 13.1187L204.804 0.147339H213.955ZM226.29 7.22987L225.653 10.4926H237.431L236.078 17.2568H224.261L223.545 20.9174H237.511L236.078 28H212.921L218.491 0.147339H241.132L239.699 7.22987H226.29ZM269.342 9.29892C269.342 11.7659 268.686 13.9211 267.373 15.7647C266.06 17.6083 264.209 18.981 261.822 19.8829L266.477 28H256.729L252.79 20.997H250.482L249.089 28H239.699L245.27 0.147339H257.764C261.424 0.147339 264.269 0.949752 266.298 2.5546C268.328 4.15945 269.342 6.40754 269.342 9.29892ZM259.833 10.2141C259.833 8.3307 258.665 7.38902 256.331 7.38902H253.188L251.875 13.9145H255.734C257.034 13.9145 258.042 13.5896 258.758 12.9397C259.475 12.2898 259.833 11.3812 259.833 10.2141Z" fill="white"/>
</g>
<defs>
<clipPath id="clip0_2_331">
<rect width="269.684" height="28" fill="white"/>
</clipPath>
</defs>
</svg>
