<svg width="270" height="28" viewBox="0 0 270 28" fill="none" xmlns="http://www.w3.org/2000/svg">
<g clip-path="url(#clip0_2050_679)">
<path fill-rule="evenodd" clip-rule="evenodd" d="M25.4255 13.6758C26.6192 14.2063 27.541 14.9292 28.1909 15.8443C28.8407 16.7595 29.1657 17.8537 29.1657 19.127C29.1657 22.0714 27.9521 24.2863 25.525 25.7718C23.0978 27.2573 19.9743 28 16.1545 28H0.0795898L5.65012 0.1474H20.412C23.6748 0.1474 26.1549 0.724341 27.8526 1.87824C29.5503 3.03214 30.3992 4.67013 30.3992 6.79224C30.3992 8.3573 29.9615 9.73003 29.0861 10.9105C28.2107 12.0909 26.9905 13.0127 25.4255 13.6758ZM13.5682 6.71266L12.7326 10.8508H17.5074C19.5764 10.8508 20.611 10.0417 20.611 8.42361C20.611 7.86656 20.3987 7.44214 19.9743 7.15035C19.5499 6.85856 18.9398 6.71266 18.144 6.71266H13.5682ZM16.6718 21.4348C17.6268 21.4348 18.396 21.2159 18.9796 20.7782C19.5632 20.3406 19.855 19.7106 19.855 18.8882C19.855 18.3047 19.6361 17.8537 19.1984 17.5354C18.7607 17.2171 18.2103 17.0579 17.5472 17.0579H11.4992L10.6238 21.4348H16.6718ZM44.2061 7.22993L43.5695 10.4927H55.3472L53.9943 17.2569H42.1769L41.4606 20.9175H55.4267L53.9943 28H30.8369L36.4074 0.1474H59.0476L57.6152 7.22993H44.2061ZM67.7615 7.42887H59.6046L61.0769 0.1474H86.7809L85.3086 7.42887H77.1518L73.0535 28H63.6632L67.7615 7.42887Z" fill="#FFCE06"/>
<path fill-rule="evenodd" clip-rule="evenodd" d="M137.918 0.1474L123.434 28H113.368L111.776 13.3177L104.136 28H94.0696L90.7273 0.1474H99.9982L101.789 16.0234L110.065 0.1474H118.699L120.291 16.2621L128.686 0.1474H137.918ZM140.584 0.1474H149.974L144.403 28H135.013L140.584 0.1474ZM181.965 0.1474L176.394 28H168.675L160.677 15.0287L158.091 28H148.939L154.51 0.1474H162.229L170.227 13.1188L172.813 0.1474H181.965ZM213.955 0.1474L208.385 28H200.666L192.668 15.0287L190.082 28H180.93L186.501 0.1474H194.22L202.217 13.1188L204.804 0.1474H213.955ZM226.29 7.22993L225.653 10.4927H237.431L236.078 17.2569H224.261L223.545 20.9175H237.511L236.078 28H212.921L218.491 0.1474H241.131L239.699 7.22993H226.29ZM269.342 9.29898C269.342 11.7659 268.686 13.9212 267.373 15.7648C266.06 17.6084 264.209 18.9811 261.822 19.883L266.477 28H256.729L252.79 20.9971H250.482L249.089 28H239.699L245.27 0.1474H257.763C261.424 0.1474 264.269 0.949813 266.298 2.55466C268.328 4.15951 269.342 6.4076 269.342 9.29898ZM259.833 10.2141C259.833 8.33076 258.665 7.38908 256.331 7.38908H253.188L251.875 13.9146H255.734C257.034 13.9146 258.042 13.5896 258.758 12.9397C259.474 12.2898 259.833 11.3813 259.833 10.2141Z" fill="#065536"/>
</g>
<defs>
<clipPath id="clip0_2050_679">
<rect width="269.684" height="28" fill="white"/>
</clipPath>
</defs>
</svg>
